<svg xmlns="http://www.w3.org/2000/svg" viewBox="82.79 4.59 346.54 503.13"><path fill="#1c1c1c" d="m266 5-1.172 2.098c-6.876 12.918-9.38 26.694-11.638 41.018-.377 2.384-.77 4.765-1.165 7.146-6.585 40.513-4.733 88.137 20.03 122.597 8.196 10.389 17.762 19.616 28.117 27.82 3.866 3.172 7.507 6.563 11.15 9.985 3.798 3.561 7.701 6.976 11.678 10.336l.104-1.794C325.58 184.38 339.875 153.66 370 127c14.066-11.32 14.066-11.32 22-14l-.734 2.727c-4.238 16.11-7.776 32.577-8.266 49.273l-.121 2.777c-.753 31.578 8.192 61.345 20.304 90.106 22.893 54.373 37.519 117.087 14.68 174.08-13.739 32.389-39.844 52.378-70.39 67.738-2.548 1.287-2.548 1.287-5.102 3.024L340 504l-3-1c.701-.92 1.403-1.84 2.125-2.79 11.97-15.886 23.72-33.288 21.875-54.21-2.428-16.773-11.18-30.483-24.469-40.762C326.34 396.713 326.34 396.713 315 392l-.445 2.273c-2.963 13.52-10.116 24.745-21.805 32.414A283 283 0 0 1 287 430l-3.02 1.766c-6.109 3.356-11.922 5.962-18.98 4.234-2.464-1.667-2.956-2.853-3.809-5.723-.228-3.919.506-7.048 1.747-10.714l.76-2.273c5.261-14.597 13.398-28.266 20.706-41.911 11.914-22.308 21.08-50.164 14.096-75.504-2.515-6.824-6.45-12.87-10.5-18.875l-.848 3.48C279.231 315.725 258.575 332.632 232 349a339 339 0 0 1-30.937 16.188c-19.68 9.043-35.064 20.01-44.239 40.351-8.497 25.371.365 52.582 11.637 75.594 4.581 9.032 9.65 17.625 15.539 25.867-3.456 1.152-3.891.9-7.07-.52l-2.442-1.084-2.613-1.209-2.7-1.236C151.602 494.74 136.108 484.355 122 471l-2.68-2.484c-23.206-22.221-34.996-51.523-36.504-83.399-.636-37.644 11.987-72.043 28.417-105.328 16.144-32.716 29.485-70.705 17.204-106.976A751 751 0 0 0 126 166l-1-3c12.032 1.44 22.922 10.483 30.353 19.673 6.61 8.72 11.229 17.95 14.647 28.327l.683 2.024c6.148 18.657 7.585 37.766 7.567 57.289l-.002 2.125c-.026 8.229-.322 16.38-1.248 24.562h2l.816-1.656a199 199 0 0 1 2.586-4.938c17.71-33.526 8.4-75.377 2.111-110.74-4.918-27.737-4.918-27.737-4.826-41.666l.018-2.825C180.378 96.335 203.535 55.46 230 28l2.39-2.617C238.512 18.877 256.236 1.745 266 5"></path></svg>